<svg xmlns="http://www.w3.org/2000/svg" viewBox="0 0 100 17.5">
  <path d="M 43.6 11.6 c 0 -1.2 -0.6 -2.3 -1.7 -2.6 c 1.3 -0.4 1.7 -1.3 1.7 -2.7 V 3.7 c 0 -2.2 -1.1 -3.4 -3.4 -3.4 H 36 v 16.9 h 2.2 V 9.8 H 40 c 1 0 1.4 0.6 1.4 1.6 v 2 c 0 1.9 0.1 2.9 0.3 3.8 h 2.4 c -0.4 -1.2 -0.5 -2.3 -0.5 -3.8 v -1.8 Z m -2.3 -5.1 c 0 1 -0.5 1.6 -1.4 1.6 h -1.7 V 2.3 h 1.9 c 0.9 0 1.2 0.5 1.2 1.4 v 2.8 Z M 0 0.3 h 2.2 v 16.9 H 0 Z M 11.8 11.4 l -1 -2.6 L 7.5 0.3 H 5.6 v 16.9 h 2.1 v -11 l 1 2.6 l 3.6 8.4 h 1.6 V 0.3 h -2.1 Z M 20.7 0 c -2.5 0 -3.9 1.7 -3.9 4 c 0 2.2 1.6 4.1 3.2 5.5 c 1.4 1.2 2.3 2.4 2.3 4.2 c 0 1.2 -0.6 1.9 -1.8 1.9 c -1.3 0 -1.8 -0.9 -1.8 -2.2 V 12 h -2.2 v 1.6 c 0 2.2 1.6 3.8 4 3.8 c 2.2 0 4 -1.5 4 -4.1 c 0 -2.2 -1.2 -3.8 -2.9 -5.3 C 20.1 6.6 19 5.6 19 3.6 c 0 -1 0.6 -1.7 1.7 -1.7 c 1.2 0 1.8 0.9 1.8 2.1 v 1.4 h 2.1 V 3.8 C 24.4 1.6 23 0 20.7 0 Z M 26 2.3 h 2.9 v 14.9 H 31 V 2.3 h 2.9 v -2 H 26 Z M 52.5 13.7 c 0 1.2 -0.6 1.9 -1.8 1.9 s -1.8 -0.7 -1.8 -1.9 V 0.3 h -2.2 v 13.3 c 0 2.4 1.7 3.9 4 3.9 s 4 -1.5 4 -3.9 V 0.3 h -2.2 v 13.4 Z M 64.1 10.8 l -0.5 2.8 l -0.5 -2.8 L 61.2 0.3 h -3.1 v 16.9 h 2 V 4.7 l 0.5 2.6 l 1.9 9.9 h 2.1 l 1.9 -9.9 l 0.5 -2.6 v 12.5 h 2 V 0.3 h -3 Z M 72.4 17.2 h 6.7 v -2 h -4.5 V 9.4 h 3.5 V 7.5 h -3.5 V 2.3 h 4.5 v -2 h -6.7 Z M 88 11.4 l -1 -2.6 L 83.7 0.3 h -1.8 v 16.9 h 2 v -11 L 85 8.8 l 3.5 8.4 h 1.6 V 0.3 H 88 Z M 92.2 0.3 v 2 H 95 v 14.9 h 2.2 V 2.3 h 2.8 v -2 Z" fill="#fff"/>
</svg>